<?xml version="1.0" standalone="no"?>
<!DOCTYPE svg PUBLIC "-//W3C//DTD SVG 20010904//EN"
 "http://www.w3.org/TR/2001/REC-SVG-20010904/DTD/svg10.dtd">
<svg version="1.0" xmlns="http://www.w3.org/2000/svg"
 width="580.000000pt" height="580.000000pt" viewBox="0 0 580.000000 580.000000"
 preserveAspectRatio="xMidYMid meet">
<metadata>
Created by potrace 1.11, written by Peter Selinger 2001-2013
</metadata>
<g transform="translate(0.000000,580.000000) scale(0.100000,-0.100000)"
fill="#000000" stroke="none">
<path d="M312 5654 c-81 -64 -132 -242 -126 -442 2 -59 5 -114 7 -122 21 -89
64 -177 153 -313 36 -54 69 -104 74 -110 6 -7 36 -46 68 -88 32 -42 64 -84 72
-92 8 -9 20 -22 25 -29 17 -22 170 -203 175 -208 3 -3 46 -54 95 -114 65 -79
88 -116 88 -137 0 -17 -24 -68 -61 -129 -34 -55 -62 -104 -62 -109 0 -5 -3
-11 -7 -13 -20 -8 -143 -258 -238 -483 -43 -102 -120 -333 -131 -395 -4 -19
-9 -39 -13 -45 -3 -5 -6 -14 -7 -20 -1 -5 -7 -37 -13 -70 -32 -169 -33 -450
-1 -589 22 -96 57 -180 205 -481 108 -221 125 -259 130 -284 2 -10 8 -27 13
-37 9 -16 22 -47 27 -64 41 -140 36 -267 -13 -320 -12 -13 -22 -26 -22 -29 0
-3 -19 -18 -43 -33 -48 -30 -150 -64 -217 -73 -25 -3 -61 -8 -80 -10 -19 -3
-65 -7 -103 -10 -77 -5 -103 -16 -113 -47 -11 -33 -5 -60 19 -86 l22 -24 400
5 c220 3 411 8 425 11 14 3 41 9 60 12 19 3 46 9 60 14 42 14 55 17 60 17 17
-1 134 70 164 99 116 113 150 293 90 474 -28 84 -109 232 -151 278 -7 7 -13
19 -13 27 0 7 -3 15 -7 17 -9 3 -43 44 -83 98 -27 36 -131 165 -153 190 -20
22 -89 127 -128 195 -42 72 -67 134 -75 182 -3 19 -8 45 -10 57 -5 25 -5 334
1 391 2 22 6 74 9 115 3 41 8 93 11 115 5 36 10 62 30 185 21 127 93 391 138
510 50 134 80 163 118 118 11 -12 36 -40 55 -60 34 -37 143 -161 240 -274 137
-157 209 -240 218 -250 6 -6 27 -31 47 -55 21 -24 48 -56 60 -70 24 -26 97
-111 154 -178 17 -19 37 -42 45 -51 8 -9 57 -65 109 -125 52 -61 99 -115 105
-120 10 -9 54 -60 137 -159 13 -16 38 -44 54 -62 17 -18 48 -54 70 -80 22 -25
45 -52 50 -58 6 -6 37 -43 70 -81 33 -39 62 -72 65 -75 3 -3 32 -36 65 -75 33
-38 67 -76 75 -85 14 -15 72 -83 145 -168 17 -20 40 -47 53 -60 12 -14 41 -48
65 -75 23 -28 47 -55 52 -61 64 -68 208 -243 234 -286 19 -30 41 -66 50 -80 8
-14 16 -27 17 -30 0 -3 19 -43 41 -90 47 -98 57 -129 83 -264 11 -54 24 -104
30 -111 14 -17 78 -10 108 12 38 29 99 151 108 217 2 15 6 38 10 49 4 12 8 76
9 142 2 136 -9 190 -61 301 -29 62 -133 227 -173 276 -6 7 -41 51 -78 98 -36
47 -69 87 -72 90 -4 3 -51 59 -106 125 -55 66 -112 132 -127 148 -15 15 -25
27 -21 27 3 0 -3 8 -13 18 -27 24 -99 113 -112 137 -11 21 -9 194 3 275 4 25
8 56 10 70 4 35 14 105 25 170 5 30 12 73 15 94 3 21 7 48 10 60 2 12 7 39 10
61 3 22 10 69 16 105 6 36 12 76 14 90 2 14 11 70 20 125 9 55 18 116 21 135
3 19 7 46 10 60 13 72 18 108 19 133 0 15 4 27 8 27 5 0 6 4 3 8 -3 4 -1 26 4
48 4 21 11 62 15 89 3 28 8 57 10 65 4 16 10 52 21 135 7 58 29 115 43 115 5
0 29 -22 52 -49 92 -106 158 -265 184 -440 1 -7 12 -25 25 -38 60 -62 157 36
201 202 31 119 31 385 0 443 -5 10 -9 19 -8 22 2 11 -57 117 -90 164 -21 28
-112 125 -203 216 -133 133 -270 292 -270 314 0 3 -20 34 -45 71 -24 36 -47
75 -50 86 -4 10 -11 19 -16 19 -5 0 -9 4 -9 9 0 5 -31 60 -68 123 -91 151
-125 213 -147 273 -25 66 -40 80 -87 80 -74 0 -136 -92 -175 -260 -10 -45 -9
-310 1 -324 6 -8 10 -17 9 -20 -13 -38 75 -199 173 -317 58 -70 67 -79 136
-153 132 -141 138 -149 147 -196 5 -24 6 -46 4 -49 -2 -2 -6 -19 -8 -37 -5
-45 -16 -116 -20 -139 -2 -11 -11 -70 -20 -132 -9 -62 -18 -115 -20 -118 -2
-3 -6 -30 -10 -60 -7 -60 -11 -86 -25 -170 -5 -30 -11 -71 -14 -90 -3 -19 -8
-46 -10 -60 -3 -14 -7 -43 -10 -65 -3 -22 -8 -51 -10 -65 -3 -14 -7 -43 -11
-65 -6 -44 -24 -156 -30 -195 -10 -62 -57 -359 -61 -390 -12 -88 -27 -142 -40
-147 -15 -6 -49 27 -134 127 -30 36 -57 67 -60 70 -3 3 -48 54 -100 115 -89
102 -141 162 -165 189 -5 6 -35 40 -65 76 -30 36 -60 70 -66 75 -6 6 -53 60
-105 120 -52 61 -96 112 -99 115 -3 3 -32 37 -65 75 -33 39 -64 75 -70 81 -29
32 -257 294 -325 374 -25 29 -56 65 -70 80 -14 15 -45 51 -70 80 -25 29 -50
58 -55 64 -6 6 -53 61 -105 121 -52 61 -99 115 -105 121 -5 6 -35 40 -65 74
-30 35 -75 87 -100 115 -25 28 -56 65 -70 81 -56 66 -146 170 -168 194 -34 37
-142 197 -142 209 0 6 -5 11 -10 11 -6 0 -9 3 -8 8 1 4 -5 18 -14 32 -41 61
-86 199 -113 347 -11 64 -15 76 -26 89 -18 22 -71 16 -107 -12z"/>
<path d="M4635 1948 c-81 -15 -188 -72 -253 -136 -80 -78 -112 -127 -172 -267
-16 -36 -33 -111 -47 -210 -10 -63 -9 -422 0 -495 9 -62 43 -203 57 -228 4 -9
16 -35 26 -57 26 -61 72 -124 134 -185 104 -102 224 -149 375 -144 50 1 100 5
113 8 12 3 30 8 40 10 20 5 95 39 102 47 3 3 21 15 41 27 31 18 90 78 136 135
26 32 74 127 93 183 20 57 41 154 55 259 9 62 8 326 -1 391 -18 138 -23 164
-45 234 -43 137 -147 287 -237 342 -20 12 -39 25 -42 28 -8 10 -102 47 -137
55 -54 11 -185 13 -238 3z m257 -81 c85 -39 158 -126 179 -215 29 -118 31
-128 45 -297 13 -155 6 -547 -11 -647 -4 -18 -8 -49 -10 -68 -6 -51 -41 -164
-62 -202 -32 -57 -76 -99 -133 -126 -47 -22 -68 -26 -145 -25 -49 0 -97 3
-105 5 -35 10 -92 38 -105 52 -8 8 -26 23 -40 34 -45 35 -83 128 -112 272 -3
15 -11 96 -19 180 -4 55 -5 447 0 510 10 130 24 221 50 321 20 76 89 166 148
192 16 6 28 15 28 18 0 3 6 6 13 7 6 1 28 6 47 11 58 17 172 6 232 -22z"/>
</g>
</svg>
